# xmcd CD database file
#
# Track frame offsets:
#	150
#	23480
#	42081
#	57343
#	76975
#	96888
#	111701
#	123513
#	134871
#	152223
#	169237
#	202232
#	219257
#	246792
#	269752
#	293667
#	310150
#	338730
#
# Disc length: 4758 seconds
#
# Revision: 2
# Processed by: cddbd v1.4b41PL1 Copyright (c) Steve Scherf et al.
# Submitted via: Feurio! 1.52 - http://www.feurio.com
#
DISCID=14129412
DTITLE=Bac Company - Burning sky/Straight Shooter
DYEAR=1900
DGENRE=
TTITLE0=??? - Burning sky
TTITLE1=??? - Morning sun
TTITLE2=??? - Leaving you
TTITLE3=??? - Like water
TTITLE4=??? - Everything I need
TTITLE5=??? - Heartbeat
TTITLE6=??? - Peace of mind
TTITLE7=??? - Passing time
TTITLE8=??? - Too bad
TTITLE9=??? - Man needs woman
TTITLE10=??? - Masters of ceremony
TTITLE11=??? - Good lovin´
TTITLE12=??? - Feel like makin´love
TTITLE13=??? - Weep no more
TTITLE14=??? - Shooting star
TTITLE15=??? - Deal with the preacher
TTITLE16=??? - Wild fire woman
TTITLE17=??? - Anna
EXTD=
EXTT0=
EXTT1=
EXTT2=
EXTT3=
EXTT4=
EXTT5=
EXTT6=
EXTT7=
EXTT8=
EXTT9=
EXTT10=
EXTT11=
EXTT12=
EXTT13=
EXTT14=
EXTT15=
EXTT16=
EXTT17=
PLAYORDER=
